<?xml version="1.0" encoding="UTF-8"?>
<svg xmlns="http://www.w3.org/2000/svg" xmlns:xlink="http://www.w3.org/1999/xlink" width="800pt" height="275pt" viewBox="0 0 800 275" version="1.1">
<g id="surface1">
<rect x="0" y="0" width="800" height="275" style="fill:rgb(14.201355%,17.588806%,19.45343%);fill-opacity:1;stroke:none;"/>
<path style=" stroke:none;fill-rule:evenodd;fill:rgb(20.896912%,27.833557%,31.370544%);fill-opacity:1;" d="M 217.488281 107.960938 L 242.96875 107.960938 L 242.96875 134.011719 L 255.855469 134.011719 C 261.804688 134.011719 267.921875 132.949219 273.558594 131.039062 C 276.328125 130.105469 279.433594 128.796875 282.164062 127.15625 C 278.566406 122.457031 276.730469 116.527344 276.191406 110.683594 C 275.460938 102.734375 277.058594 92.382812 282.441406 86.160156 L 285.117188 83.0625 L 288.3125 85.628906 C 296.351562 92.089844 303.105469 101.105469 304.296875 111.390625 C 313.976562 108.546875 325.332031 109.21875 333.863281 114.140625 L 337.359375 116.15625 L 335.519531 119.753906 C 328.308594 133.828125 313.230469 138.195312 298.484375 137.421875 C 276.421875 192.367188 228.394531 218.382812 170.15625 218.382812 C 140.066406 218.382812 112.464844 207.136719 96.746094 180.445312 L 96.488281 180.007812 L 94.199219 175.351562 C 88.886719 163.597656 87.121094 150.722656 88.320312 137.863281 L 88.675781 134.011719 L 110.46875 134.011719 L 110.46875 107.960938 L 135.949219 107.960938 L 135.949219 82.484375 L 186.90625 82.484375 L 186.90625 57 L 217.488281 57 L 217.488281 107.960938 "/>
<path style=" stroke:none;fill-rule:nonzero;fill:rgb(28.074646%,67.99469%,87.272644%);fill-opacity:1;" d="M 300.046875 117.601562 C 301.753906 104.320312 291.816406 93.890625 285.652344 88.941406 C 278.550781 97.148438 277.445312 118.667969 288.585938 127.726562 C 282.367188 133.25 269.269531 138.257812 255.855469 138.257812 L 92.546875 138.257812 C 91.242188 152.261719 93.703125 165.15625 99.316406 176.195312 L 101.175781 179.59375 C 102.351562 181.59375 103.636719 183.519531 105.027344 185.371094 C 111.738281 185.804688 117.929688 185.949219 123.589844 185.828125 C 123.59375 185.828125 123.59375 185.828125 123.59375 185.828125 C 134.722656 185.582031 143.804688 184.269531 150.6875 181.878906 C 151.714844 181.523438 152.824219 182.070312 153.183594 183.09375 C 153.535156 184.113281 152.992188 185.234375 151.972656 185.589844 C 151.058594 185.90625 150.101562 186.199219 149.117188 186.484375 C 149.117188 186.484375 149.113281 186.484375 149.109375 186.484375 C 143.695312 188.03125 137.882812 189.074219 130.386719 189.535156 C 130.828125 189.542969 129.925781 189.605469 129.917969 189.605469 C 129.664062 189.621094 129.34375 189.652344 129.085938 189.667969 C 126.136719 189.835938 122.953125 189.871094 119.695312 189.871094 C 116.132812 189.871094 112.625 189.804688 108.707031 189.605469 L 108.605469 189.667969 C 122.214844 204.964844 143.488281 214.132812 170.15625 214.132812 C 226.597656 214.132812 274.472656 189.117188 295.667969 132.941406 C 310.710938 134.488281 325.164062 130.652344 331.742188 117.816406 C 321.269531 111.773438 307.800781 113.703125 300.046875 117.601562 "/>
<path style=" stroke:none;fill-rule:nonzero;fill:rgb(33.796692%,74.443054%,93.370056%);fill-opacity:1;" d="M 300.046875 117.601562 C 301.753906 104.320312 291.816406 93.890625 285.652344 88.941406 C 278.550781 97.148438 277.445312 118.667969 288.585938 127.726562 C 282.367188 133.25 269.269531 138.257812 255.855469 138.257812 L 102.21875 138.257812 C 101.550781 159.699219 109.507812 175.980469 123.589844 185.828125 C 123.59375 185.828125 123.59375 185.828125 123.59375 185.828125 C 134.722656 185.582031 143.804688 184.269531 150.6875 181.878906 C 151.714844 181.523438 152.824219 182.070312 153.183594 183.09375 C 153.535156 184.113281 152.992188 185.234375 151.972656 185.589844 C 151.058594 185.90625 150.101562 186.199219 149.117188 186.484375 C 149.117188 186.484375 149.113281 186.484375 149.109375 186.484375 C 143.695312 188.03125 137.382812 189.207031 129.886719 189.667969 C 129.882812 189.667969 129.703125 189.496094 129.703125 189.496094 C 148.910156 199.347656 176.761719 199.3125 208.695312 187.046875 C 244.503906 173.292969 277.816406 147.085938 301.0625 117.113281 C 300.71875 117.273438 300.371094 117.433594 300.046875 117.601562 "/>
<path style=" stroke:none;fill-rule:nonzero;fill:rgb(22.122192%,54.3396%,74.269104%);fill-opacity:1;" d="M 92.855469 155.269531 C 93.867188 162.773438 96.0625 169.800781 99.316406 176.195312 L 101.175781 179.59375 C 102.351562 181.59375 103.636719 183.519531 105.027344 185.371094 C 111.738281 185.804688 117.929688 185.949219 123.59375 185.828125 C 134.722656 185.582031 143.804688 184.269531 150.6875 181.878906 C 151.714844 181.523438 152.824219 182.070312 153.183594 183.09375 C 153.535156 184.113281 152.992188 185.234375 151.972656 185.589844 C 151.058594 185.90625 150.101562 186.199219 149.117188 186.484375 C 149.117188 186.484375 149.113281 186.484375 149.109375 186.484375 C 143.695312 188.03125 137.414062 189.140625 129.917969 189.605469 C 129.664062 189.621094 129.214844 189.621094 128.953125 189.636719 C 126.007812 189.804688 122.851562 189.902344 119.597656 189.902344 C 116.035156 189.902344 112.394531 189.835938 108.472656 189.636719 C 122.082031 204.933594 143.488281 214.132812 170.15625 214.132812 C 218.476562 214.132812 260.511719 195.792969 284.910156 155.269531 L 92.855469 155.269531 "/>
<path style=" stroke:none;fill-rule:nonzero;fill:rgb(24.938965%,61.201477%,79.437256%);fill-opacity:1;" d="M 103.6875 155.269531 C 106.574219 168.445312 113.519531 178.78125 123.59375 185.828125 C 134.722656 185.582031 143.804688 184.269531 150.6875 181.878906 C 151.714844 181.523438 152.824219 182.070312 153.183594 183.09375 C 153.535156 184.113281 152.992188 185.234375 151.972656 185.589844 C 151.058594 185.90625 150.101562 186.199219 149.117188 186.484375 C 149.117188 186.484375 149.113281 186.484375 149.109375 186.484375 C 143.695312 188.03125 137.285156 189.140625 129.785156 189.605469 C 148.992188 199.457031 176.765625 199.3125 208.695312 187.046875 C 228.011719 179.625 246.601562 168.578125 263.28125 155.269531 L 103.6875 155.269531 "/>
<path style=" stroke:none;fill-rule:evenodd;fill:rgb(27.284241%,69.000244%,84.199524%);fill-opacity:1;" d="M 114.714844 112.210938 L 136.796875 112.210938 L 136.796875 134.292969 L 114.714844 134.292969 Z M 116.550781 114.050781 L 118.296875 114.050781 L 118.296875 132.457031 L 116.550781 132.457031 Z M 119.828125 114.050781 L 121.640625 114.050781 L 121.640625 132.457031 L 119.828125 132.457031 Z M 123.175781 114.050781 L 124.988281 114.050781 L 124.988281 132.457031 L 123.175781 132.457031 Z M 126.519531 114.050781 L 128.335938 114.050781 L 128.335938 132.457031 L 126.519531 132.457031 Z M 129.867188 114.050781 L 131.679688 114.050781 L 131.679688 132.457031 L 129.867188 132.457031 Z M 133.210938 114.050781 L 134.957031 114.050781 L 134.957031 132.457031 L 133.210938 132.457031 L 133.210938 114.050781 "/>
<path style=" stroke:none;fill-rule:evenodd;fill:rgb(27.284241%,69.000244%,84.199524%);fill-opacity:1;" d="M 140.191406 86.730469 L 162.277344 86.730469 L 162.277344 108.8125 L 140.191406 108.8125 Z M 142.035156 88.566406 L 143.777344 88.566406 L 143.777344 106.972656 L 142.035156 106.972656 Z M 145.3125 88.566406 L 147.125 88.566406 L 147.125 106.972656 L 145.3125 106.972656 Z M 148.652344 88.566406 L 150.46875 88.566406 L 150.46875 106.972656 L 148.652344 106.972656 Z M 152.003906 88.566406 L 153.8125 88.566406 L 153.8125 106.972656 L 152.003906 106.972656 Z M 155.351562 88.566406 L 157.160156 88.566406 L 157.160156 106.972656 L 155.351562 106.972656 Z M 158.691406 88.566406 L 160.4375 88.566406 L 160.4375 106.972656 L 158.691406 106.972656 L 158.691406 88.566406 "/>
<path style=" stroke:none;fill-rule:evenodd;fill:rgb(34.408569%,78.594971%,94.485474%);fill-opacity:1;" d="M 140.191406 112.210938 L 162.277344 112.210938 L 162.277344 134.292969 L 140.191406 134.292969 Z M 142.035156 114.050781 L 143.777344 114.050781 L 143.777344 132.457031 L 142.035156 132.457031 Z M 145.3125 114.050781 L 147.125 114.050781 L 147.125 132.457031 L 145.3125 132.457031 Z M 148.652344 114.050781 L 150.46875 114.050781 L 150.46875 132.457031 L 148.652344 132.457031 Z M 152.003906 114.050781 L 153.8125 114.050781 L 153.8125 132.457031 L 152.003906 132.457031 Z M 155.351562 114.050781 L 157.160156 114.050781 L 157.160156 132.457031 L 155.351562 132.457031 Z M 158.691406 114.050781 L 160.4375 114.050781 L 160.4375 132.457031 L 158.691406 132.457031 L 158.691406 114.050781 "/>
<path style=" stroke:none;fill-rule:evenodd;fill:rgb(27.284241%,69.000244%,84.199524%);fill-opacity:1;" d="M 165.675781 112.210938 L 187.761719 112.210938 L 187.761719 134.292969 L 165.675781 134.292969 Z M 167.515625 114.050781 L 169.257812 114.050781 L 169.257812 132.457031 L 167.515625 132.457031 Z M 170.789062 114.050781 L 172.605469 114.050781 L 172.605469 132.457031 L 170.789062 132.457031 Z M 174.140625 114.050781 L 175.949219 114.050781 L 175.949219 132.457031 L 174.140625 132.457031 Z M 177.484375 114.050781 L 179.296875 114.050781 L 179.296875 132.457031 L 177.484375 132.457031 Z M 180.828125 114.050781 L 182.644531 114.050781 L 182.644531 132.457031 L 180.828125 132.457031 Z M 184.179688 114.050781 L 185.921875 114.050781 L 185.921875 132.457031 L 184.179688 132.457031 L 184.179688 114.050781 "/>
<path style=" stroke:none;fill-rule:evenodd;fill:rgb(34.408569%,78.594971%,94.485474%);fill-opacity:1;" d="M 165.675781 86.730469 L 187.761719 86.730469 L 187.761719 108.8125 L 165.675781 108.8125 Z M 167.515625 88.566406 L 169.257812 88.566406 L 169.257812 106.972656 L 167.515625 106.972656 Z M 170.789062 88.566406 L 172.605469 88.566406 L 172.605469 106.972656 L 170.789062 106.972656 Z M 174.140625 88.566406 L 175.949219 88.566406 L 175.949219 106.972656 L 174.140625 106.972656 Z M 177.484375 88.566406 L 179.296875 88.566406 L 179.296875 106.972656 L 177.484375 106.972656 Z M 180.828125 88.566406 L 182.644531 88.566406 L 182.644531 106.972656 L 180.828125 106.972656 Z M 184.179688 88.566406 L 185.921875 88.566406 L 185.921875 106.972656 L 184.179688 106.972656 L 184.179688 88.566406 "/>
<path style=" stroke:none;fill-rule:evenodd;fill:rgb(34.408569%,78.594971%,94.485474%);fill-opacity:1;" d="M 191.15625 112.210938 L 213.242188 112.210938 L 213.242188 134.292969 L 191.15625 134.292969 Z M 192.996094 114.050781 L 194.742188 114.050781 L 194.742188 132.457031 L 192.996094 132.457031 Z M 196.273438 114.050781 L 198.089844 114.050781 L 198.089844 132.457031 L 196.273438 132.457031 Z M 199.621094 114.050781 L 201.433594 114.050781 L 201.433594 132.457031 L 199.621094 132.457031 Z M 202.96875 114.050781 L 204.777344 114.050781 L 204.777344 132.457031 L 202.96875 132.457031 Z M 206.3125 114.050781 L 208.128906 114.050781 L 208.128906 132.457031 L 206.3125 132.457031 Z M 209.65625 114.050781 L 211.402344 114.050781 L 211.402344 132.457031 L 209.65625 132.457031 L 209.65625 114.050781 "/>
<path style=" stroke:none;fill-rule:evenodd;fill:rgb(27.284241%,69.000244%,84.199524%);fill-opacity:1;" d="M 191.15625 86.730469 L 213.242188 86.730469 L 213.242188 108.8125 L 191.15625 108.8125 Z M 192.996094 88.566406 L 194.742188 88.566406 L 194.742188 106.972656 L 192.996094 106.972656 Z M 196.273438 88.566406 L 198.089844 88.566406 L 198.089844 106.972656 L 196.273438 106.972656 Z M 199.621094 88.566406 L 201.433594 88.566406 L 201.433594 106.972656 L 199.621094 106.972656 Z M 202.96875 88.566406 L 204.777344 88.566406 L 204.777344 106.972656 L 202.96875 106.972656 Z M 206.3125 88.566406 L 208.128906 88.566406 L 208.128906 106.972656 L 206.3125 106.972656 Z M 209.65625 88.566406 L 211.402344 88.566406 L 211.402344 106.972656 L 209.65625 106.972656 L 209.65625 88.566406 "/>
<path style=" stroke:none;fill-rule:evenodd;fill:rgb(34.408569%,78.594971%,94.485474%);fill-opacity:1;" d="M 191.15625 61.246094 L 213.242188 61.246094 L 213.242188 83.332031 L 191.15625 83.332031 Z M 192.996094 63.085938 L 194.742188 63.085938 L 194.742188 81.488281 L 192.996094 81.488281 Z M 196.273438 63.085938 L 198.089844 63.085938 L 198.089844 81.488281 L 196.273438 81.488281 Z M 199.621094 63.085938 L 201.433594 63.085938 L 201.433594 81.488281 L 199.621094 81.488281 Z M 202.96875 63.085938 L 204.777344 63.085938 L 204.777344 81.488281 L 202.96875 81.488281 Z M 206.3125 63.085938 L 208.128906 63.085938 L 208.128906 81.488281 L 206.3125 81.488281 Z M 209.65625 63.085938 L 211.402344 63.085938 L 211.402344 81.488281 L 209.65625 81.488281 L 209.65625 63.085938 "/>
<path style=" stroke:none;fill-rule:evenodd;fill:rgb(27.284241%,69.000244%,84.199524%);fill-opacity:1;" d="M 216.640625 112.210938 L 238.722656 112.210938 L 238.722656 134.292969 L 216.640625 134.292969 Z M 218.480469 114.050781 L 220.222656 114.050781 L 220.222656 132.457031 L 218.480469 132.457031 Z M 221.757812 114.050781 L 223.566406 114.050781 L 223.566406 132.457031 L 221.757812 132.457031 Z M 225.101562 114.050781 L 226.914062 114.050781 L 226.914062 132.457031 L 225.101562 132.457031 Z M 228.445312 114.050781 L 230.257812 114.050781 L 230.257812 132.457031 L 228.445312 132.457031 Z M 231.796875 114.050781 L 233.605469 114.050781 L 233.605469 132.457031 L 231.796875 132.457031 Z M 235.140625 114.050781 L 236.882812 114.050781 L 236.882812 132.457031 L 235.140625 132.457031 L 235.140625 114.050781 "/>
<path style=" stroke:none;fill-rule:evenodd;fill:rgb(84.448242%,94.798279%,95.042419%);fill-opacity:1;" d="M 160.894531 170.101562 C 164.261719 170.101562 166.988281 172.828125 166.988281 176.191406 C 166.988281 179.558594 164.261719 182.285156 160.894531 182.285156 C 157.527344 182.285156 154.804688 179.558594 154.804688 176.191406 C 154.804688 172.828125 157.527344 170.101562 160.894531 170.101562 "/>
<path style=" stroke:none;fill-rule:evenodd;fill:rgb(20.896912%,27.833557%,31.370544%);fill-opacity:1;" d="M 160.894531 171.824219 C 161.453125 171.824219 161.984375 171.933594 162.472656 172.121094 C 161.941406 172.429688 161.585938 173.007812 161.585938 173.664062 C 161.585938 174.648438 162.382812 175.445312 163.363281 175.445312 C 164.039062 175.445312 164.625 175.074219 164.925781 174.519531 C 165.140625 175.035156 165.257812 175.597656 165.257812 176.191406 C 165.257812 178.601562 163.304688 180.558594 160.894531 180.558594 C 158.484375 180.558594 156.53125 178.601562 156.53125 176.191406 C 156.53125 173.785156 158.484375 171.824219 160.894531 171.824219 "/>
<path style=" stroke:none;fill-rule:evenodd;fill:rgb(20.896912%,27.833557%,31.370544%);fill-opacity:1;" d="M 53.132812 157.472656 L 336.550781 157.472656 C 330.375 155.90625 317.019531 153.796875 319.226562 145.707031 C 308.003906 158.691406 280.941406 154.816406 274.113281 148.414062 C 266.511719 159.445312 222.234375 155.253906 219.144531 146.65625 C 209.613281 157.847656 180.066406 157.847656 170.53125 146.65625 C 167.441406 155.253906 123.171875 159.445312 115.566406 148.414062 C 108.734375 154.816406 81.675781 158.691406 70.457031 145.707031 C 72.65625 153.796875 59.304688 155.90625 53.132812 157.472656 "/>
<path style=" stroke:none;fill-rule:nonzero;fill:rgb(75.973511%,88.130188%,88.061523%);fill-opacity:1;" d="M 177.09375 214.003906 C 162.003906 206.84375 153.722656 197.113281 149.109375 186.484375 C 143.507812 188.085938 136.773438 189.105469 128.945312 189.546875 C 125.992188 189.714844 122.894531 189.796875 119.636719 189.796875 C 115.882812 189.796875 111.929688 189.683594 107.78125 189.464844 C 121.617188 203.292969 138.636719 213.941406 170.15625 214.132812 C 172.480469 214.132812 174.796875 214.09375 177.09375 214.003906 "/>
<path style=" stroke:none;fill-rule:nonzero;fill:rgb(84.448242%,94.798279%,95.042419%);fill-opacity:1;" d="M 154.71875 196.289062 C 152.628906 193.457031 150.605469 189.894531 149.117188 186.484375 C 143.507812 188.085938 136.773438 189.105469 128.945312 189.546875 C 134.320312 192.46875 142.011719 195.167969 154.71875 196.289062 "/>
<path style=" stroke:none;fill-rule:evenodd;fill:rgb(91.807556%,91.65802%,91.694641%);fill-opacity:1;" d="M 405.894531 128.238281 L 405.894531 103.433594 C 405.894531 100.175781 407.929688 97.550781 411.304688 97.550781 L 412.234375 97.550781 C 415.609375 97.550781 417.640625 100.175781 417.640625 103.433594 L 417.640625 155.65625 C 417.640625 168.390625 411.347656 178.523438 400.386719 184.980469 C 395.300781 187.96875 389.679688 189.503906 383.785156 189.503906 L 381.457031 189.503906 C 368.722656 189.503906 358.601562 183.207031 352.140625 172.25 C 349.136719 167.164062 347.609375 161.554688 347.609375 155.65625 L 347.609375 153.324219 C 347.609375 140.589844 353.902344 130.464844 364.859375 123.996094 C 369.949219 120.992188 375.558594 119.46875 381.457031 119.46875 L 383.785156 119.46875 C 392.40625 119.46875 399.726562 122.808594 405.894531 128.238281 Z M 359.355469 154.488281 C 359.355469 163.691406 363.816406 170.601562 371.878906 175.015625 C 375.136719 176.796875 378.675781 177.753906 382.394531 177.753906 C 391.425781 177.753906 398.121094 173.496094 402.742188 165.84375 C 404.890625 162.285156 405.894531 158.390625 405.894531 154.25 C 405.894531 146.277344 402.113281 140.054688 395.6875 135.433594 C 391.792969 132.628906 387.40625 131.222656 382.621094 131.222656 C 372.78125 131.222656 365.699219 136.195312 361.445312 145.027344 C 360.011719 148.015625 359.355469 151.183594 359.355469 154.488281 Z M 458.394531 119.46875 L 460.019531 119.46875 C 473.632812 119.46875 483.980469 126.070312 490.542969 137.953125 C 493.164062 142.703125 494.566406 147.894531 494.566406 153.324219 L 494.566406 155.65625 C 494.566406 168.390625 488.289062 178.539062 477.3125 184.980469 C 472.226562 187.960938 466.609375 189.503906 460.71875 189.503906 L 458.394531 189.503906 C 445.65625 189.503906 435.535156 183.207031 429.070312 172.25 C 426.070312 167.164062 424.542969 161.554688 424.542969 155.65625 L 424.542969 153.324219 C 424.542969 140.589844 430.863281 130.492188 441.785156 123.996094 C 446.867188 120.980469 452.488281 119.46875 458.394531 119.46875 Z M 436.285156 154.488281 C 436.285156 163.417969 440.671875 169.984375 448.21875 174.605469 C 451.753906 176.773438 455.652344 177.753906 459.796875 177.753906 C 468.613281 177.753906 475.136719 173.28125 479.679688 165.835938 C 481.84375 162.285156 482.820312 158.386719 482.820312 154.25 C 482.820312 145.941406 478.820312 139.605469 471.984375 135.007812 C 468.238281 132.484375 464.066406 131.222656 459.558594 131.222656 C 449.714844 131.222656 442.632812 136.195312 438.382812 145.027344 C 436.941406 148.015625 436.285156 151.183594 436.285156 154.488281 Z M 543.398438 132.160156 C 541.632812 131.332031 538.3125 131.058594 536.394531 130.984375 C 526.578125 130.613281 519.480469 136.140625 515.3125 144.796875 C 513.871094 147.78125 513.222656 150.945312 513.222656 154.25 C 513.222656 164.3125 518.5 171.355469 527.484375 175.652344 C 530.765625 177.21875 534.996094 177.515625 538.585938 177.515625 C 541.738281 177.515625 546.195312 175.585938 548.992188 174.253906 L 549.480469 174.027344 L 551.648438 174.027344 L 551.890625 174.074219 C 554.5625 174.632812 556.578125 176.324219 556.578125 179.195312 L 556.578125 180.363281 C 556.578125 187.511719 543.507812 189.152344 538.519531 189.496094 C 520.917969 190.71875 507.757812 181.050781 502.734375 164.265625 C 501.859375 161.347656 501.472656 158.449219 501.472656 155.414062 L 501.472656 153.085938 C 501.472656 140.351562 507.789062 130.257812 518.71875 123.769531 C 523.804688 120.753906 529.417969 119.238281 535.320312 119.238281 L 537.648438 119.238281 C 543.90625 119.238281 549.679688 121.015625 554.847656 124.546875 L 555.273438 124.839844 L 555.535156 125.277344 C 556.097656 126.207031 556.578125 127.277344 556.578125 128.378906 L 556.578125 129.542969 C 556.578125 132.539062 554.335938 134.152344 551.625 134.675781 L 551.402344 134.710938 L 550.710938 134.710938 C 548.953125 134.710938 544.972656 132.898438 543.398438 132.160156 Z M 581.511719 140.117188 C 586.070312 135.546875 590.652344 130.988281 595.28125 126.492188 C 596.570312 125.238281 601.460938 119.933594 603.382812 119.933594 L 605.488281 119.933594 L 605.726562 119.984375 C 608.40625 120.539062 610.414062 122.234375 610.414062 125.113281 L 610.414062 126.28125 C 610.414062 128.242188 608.113281 130.527344 606.847656 131.871094 C 604.144531 134.730469 601.304688 137.5 598.539062 140.304688 L 584.351562 154.707031 C 590.460938 160.832031 596.5625 166.964844 602.628906 173.136719 C 604.304688 174.839844 605.980469 176.550781 607.632812 178.28125 C 608.214844 178.894531 609.078125 179.660156 609.566406 180.511719 C 610.09375 181.308594 610.414062 182.210938 610.414062 183.167969 L 610.414062 184.378906 L 610.347656 184.660156 C 609.6875 187.339844 607.984375 189.503906 605.015625 189.503906 L 604.078125 189.503906 C 602.136719 189.503906 599.941406 187.300781 598.609375 186.046875 C 595.867188 183.460938 593.21875 180.738281 590.523438 178.101562 L 581.511719 169.246094 L 581.511719 183.398438 C 581.511719 186.652344 579.46875 189.273438 576.097656 189.273438 L 575.171875 189.273438 C 571.800781 189.273438 569.765625 186.652344 569.765625 183.398438 L 569.765625 103.660156 C 569.765625 100.398438 571.800781 97.789062 575.171875 97.789062 L 576.097656 97.789062 C 579.46875 97.789062 581.511719 100.398438 581.511719 103.660156 Z M 727.921875 119.933594 L 729.085938 119.933594 C 732.609375 119.933594 734.964844 122.308594 734.964844 125.8125 C 734.964844 130.675781 730.3125 131.921875 726.292969 131.921875 C 721.015625 131.921875 715.980469 135.113281 712.339844 138.691406 C 707.804688 143.167969 705.820312 148.890625 705.820312 155.1875 L 705.820312 183.625 C 705.820312 186.886719 703.78125 189.503906 700.410156 189.503906 L 699.484375 189.503906 C 696.105469 189.503906 694.070312 186.886719 694.070312 183.625 L 694.070312 153.554688 C 694.070312 142.007812 699.691406 132.585938 709.0625 125.96875 C 714.664062 122.019531 721.066406 119.933594 727.921875 119.933594 Z M 644.429688 176.292969 C 648.699219 177.785156 653.574219 177.574219 657.964844 176.808594 C 660.203125 175.855469 665.941406 173.355469 668.054688 173.71875 L 668.386719 173.773438 L 668.6875 173.925781 C 669.972656 174.550781 671.203125 175.433594 671.859375 176.742188 C 673.402344 179.816406 672.660156 182.90625 669.644531 184.648438 L 668.636719 185.234375 C 657.492188 191.664062 645.644531 190.773438 634.53125 184.765625 C 629.222656 181.894531 625.160156 177.632812 622.164062 172.433594 L 621.464844 171.222656 C 614.308594 158.835938 615.273438 145.804688 623.34375 134.019531 C 626.128906 129.949219 629.765625 126.804688 634.019531 124.34375 L 635.632812 123.414062 C 646.128906 117.355469 657.375 117.769531 668.152344 123.085938 C 673.945312 125.945312 678.640625 130.210938 681.875 135.8125 L 682.460938 136.816406 C 684.808594 140.894531 681.765625 144.441406 678.621094 146.871094 C 674.972656 149.679688 671.289062 153.066406 667.796875 156.085938 C 660 162.8125 652.222656 169.558594 644.429688 176.292969 Z M 634.339844 169.210938 C 643.0625 161.730469 651.777344 154.253906 660.472656 146.742188 C 663.441406 144.183594 666.699219 141.527344 669.648438 138.828125 C 667.28125 135.851562 663.332031 133.699219 659.976562 132.421875 C 653.199219 129.839844 646.519531 130.710938 640.304688 134.292969 C 632.171875 138.988281 628.703125 146.46875 629.007812 155.777344 C 629.132812 159.4375 630.113281 162.972656 632.0625 166.089844 C 632.746094 167.191406 633.515625 168.222656 634.339844 169.210938 "/>
</g>
</svg>
